<?xml version="1.0" encoding="utf-8"?>
<!-- Generator: Adobe Illustrator 17.0.0, SVG Export Plug-In . SVG Version: 6.00 Build 0)  -->
<!DOCTYPE svg PUBLIC "-//W3C//DTD SVG 1.1//EN" "http://www.w3.org/Graphics/SVG/1.1/DTD/svg11.dtd">
<svg version="1.1" id="Layer_1" xmlns="http://www.w3.org/2000/svg" xmlns:xlink="http://www.w3.org/1999/xlink" x="0px" y="0px"
	 width="315.344px" height="81.109px" viewBox="0 0 315.344 81.109" enable-background="new 0 0 315.344 81.109"
	 xml:space="preserve">
<g>
	<path d="M19.422,70.115h-4.98v10.42H1.155V40.395h19.413c10.881,0,17.123,5.213,17.123,14.375c0,5.838-2.234,10.191-6.358,12.711
		l7.901,13.055H24.234L19.422,70.115z M20.568,60.037c2.863,0,4.523-1.775,4.523-4.867c0-2.98-1.66-4.695-4.523-4.695h-6.127v9.562
		H20.568z"/>
	<polygon points="55.957,50.475 55.957,55.4 74.738,55.4 74.738,65.475 55.957,65.475 55.957,70.459 77.143,70.459 77.143,80.535 
		42.67,80.535 42.67,40.395 76.628,40.395 76.628,50.475 	"/>
	<path d="M118.885,47.324l-7.673,9.107c-2.407-3.266-6.015-5.387-9.105-5.387c-4.81,0-8.304,3.838-8.304,9.162
		c0,5.383,3.494,9.277,8.304,9.277c2.862,0,6.471-1.773,9.105-4.58l7.673,8.189c-4.467,4.869-11.282,8.016-17.467,8.016
		c-12.311,0-21.244-8.762-21.244-20.731c0-11.795,9.162-20.385,21.761-20.385C108.063,39.994,114.762,42.856,118.885,47.324"/>
	<path d="M163.088,60.438c0,11.91-9.277,20.672-22.047,20.672c-12.769,0-22.046-8.705-22.046-20.672
		c0-11.912,9.277-20.441,22.046-20.441C153.811,39.996,163.088,48.584,163.088,60.438 M132.623,60.496
		c0,5.498,4.01,9.562,8.591,9.562c4.58,0,8.247-4.064,8.247-9.562c0-5.496-3.667-9.451-8.247-9.451
		C136.574,51.045,132.623,55,132.623,60.496"/>
	<polygon points="196.814,69.484 196.814,80.535 166.805,80.535 166.805,40.395 180.092,40.395 180.092,69.484 	"/>
	<polygon points="214.633,50.475 214.633,55.4 233.418,55.4 233.418,65.475 214.633,65.475 214.633,70.459 235.824,70.459 
		235.824,80.535 201.35,80.535 201.35,40.395 235.307,40.395 235.307,50.475 	"/>
	<polygon points="263.983,50.875 263.983,80.535 250.697,80.535 250.697,50.875 239.301,50.875 239.301,40.395 275.438,40.395 
		275.438,50.875 	"/>
	<path d="M284.133,74.865l-2.06,5.67h-13.629l16.949-40.141h13.629l16.321,40.141h-14.146l-2.003-5.67H284.133z M291.808,53.623
		l-4.237,11.738h8.359L291.808,53.623z"/>
	<path d="M17.885,2.94l-1.381,1.758c-1.557-1.586-3.745-2.535-5.963-2.535c-4.55,0-8.209,3.514-8.209,7.947
		c0,4.408,3.659,7.949,8.209,7.949c2.218,0,4.378-0.922,5.963-2.418l1.41,1.584c-1.988,1.871-4.695,3.109-7.488,3.109
		C4.608,20.334,0,15.813,0,10.109C0,4.465,4.666,0,10.514,0C13.277,0,15.957,1.123,17.885,2.94"/>
	<polygon points="24.365,2.277 24.365,8.9 34.531,8.9 34.531,11.119 24.365,11.119 24.365,18.031 36.117,18.031 36.117,20.221 
		22.062,20.221 22.062,0.059 35.74,0.059 35.74,2.277 	"/>
	<polygon points="55.209,20.221 43.113,4.031 43.113,20.221 40.809,20.221 40.809,0.059 43.202,0.059 55.298,16.274 55.298,0.059 
		57.572,0.059 57.572,20.221 	"/>
	<polygon points="69.84,2.277 69.84,20.221 67.536,20.221 67.536,2.277 60.969,2.277 60.969,0.059 76.436,0.059 76.436,2.277 	"/>
	<path d="M88.792,13.797c-0.433,0.029-0.894,0.057-1.354,0.057H82.08v6.367h-2.303V0.059h7.66c5.039,0,7.949,2.477,7.949,6.77
		c0,3.34-1.612,5.586-4.522,6.535l4.725,6.857h-2.622L88.792,13.797z M87.438,11.637c3.657,0,5.73-1.611,5.73-4.75
		c0-3.055-2.073-4.609-5.73-4.609H82.08v9.359H87.438z"/>
	<path d="M119.809,10.139c0,5.676-4.665,10.197-10.539,10.197c-5.906,0-10.572-4.521-10.572-10.197
		c0-5.703,4.666-10.137,10.572-10.137C115.144,0.002,119.809,4.465,119.809,10.139 M101.031,10.139c0,4.436,3.744,7.979,8.238,7.979
		c4.492,0,8.178-3.543,8.178-7.979s-3.686-7.949-8.178-7.949C104.775,2.19,101.031,5.703,101.031,10.139"/>
	<path d="M153.693,2.94l-1.383,1.758c-1.555-1.586-3.742-2.535-5.962-2.535c-4.55,0-8.208,3.514-8.208,7.947
		c0,4.408,3.658,7.949,8.208,7.949c2.22,0,4.38-0.922,5.962-2.418l1.411,1.584c-1.986,1.871-4.692,3.109-7.485,3.109
		c-5.822,0-10.428-4.521-10.428-10.225C135.809,4.465,140.473,0,146.321,0C149.086,0,151.766,1.123,153.693,2.94"/>
	<path d="M174.346,11.924c0,5.242-3.171,8.412-8.441,8.412c-5.3,0-8.495-3.17-8.495-8.412V0.059h2.304v11.865
		c0,3.916,2.36,6.193,6.191,6.193c3.83,0,6.134-2.277,6.134-6.193V0.059h2.307V11.924z"/>
	<polygon points="191.133,18.031 191.133,20.221 179.988,20.221 179.988,0.059 182.293,0.059 182.293,18.031 	"/>
	<polygon points="201.012,2.277 201.012,20.221 198.707,20.221 198.707,2.277 192.14,2.277 192.14,0.059 207.609,0.059 
		207.609,2.277 	"/>
	<path d="M227.424,11.924c0,5.242-3.17,8.412-8.439,8.412c-5.299,0-8.498-3.17-8.498-8.412V0.059h2.305v11.865
		c0,3.916,2.362,6.193,6.193,6.193c3.83,0,6.135-2.277,6.135-6.193V0.059h2.305V11.924z"/>
	<path d="M242.082,13.797c-0.432,0.029-0.893,0.057-1.355,0.057h-5.357v6.367h-2.304V0.059h7.661c5.041,0,7.949,2.477,7.949,6.77
		c0,3.34-1.612,5.586-4.52,6.535l4.723,6.857h-2.621L242.082,13.797z M240.728,11.637c3.657,0,5.731-1.611,5.731-4.75
		c0-3.055-2.074-4.609-5.731-4.609h-5.357v9.359H240.728z"/>
	<path d="M255.649,15.123l-2.251,5.098h-2.446l9.046-20.162h2.39l9.014,20.162h-2.507l-2.247-5.098H255.649z M261.117,2.68
		l-4.492,10.225h9.043L261.117,2.68z"/>
	<polygon points="285.715,18.031 285.715,20.221 274.566,20.221 274.566,0.059 276.873,0.059 276.873,18.031 	"/>
</g>
<g>
</g>
<g>
</g>
<g>
</g>
<g>
</g>
<g>
</g>
<g>
</g>
</svg>
